<svg xmlns="http://www.w3.org/2000/svg" width="1180" height="348" viewBox="0 0 1180 348" role="img" aria-label="monitor studio: the overview tab, a grid of panels with gauges and sparklines">
<title>monitor studio: the overview tab, a grid of panels with gauges and sparklines</title>
<rect width="1180" height="348" rx="6" fill="#1a1614"/>
<path fill="#231e1b" d="M14 14h1152v20h-1152zM14 314h1152v20h-1152z"/>
<path fill="#e0443e" d="M148.4 74h9.6v20h-9.6zM158 74h9.6v20h-9.6zM167.6 74h9.6v20h-9.6zM177.2 74h9.6v20h-9.6zM186.8 74h9.6v20h-9.6zM196.4 74h9.6v20h-9.6zM206 74h9.6v20h-9.6zM215.6 74h9.6v20h-9.6zM225.2 74h9.6v20h-9.6zM234.8 74h9.6v20h-9.6zM244.4 74h1.2v20h-1.2zM724.4 74h9.6v20h-9.6zM734 74h9.6v20h-9.6zM743.6 74h9.6v20h-9.6zM753.2 74h9.6v20h-9.6zM762.8 74h9.6v20h-9.6zM772.4 74h9.6v20h-9.6zM782 74h9.6v20h-9.6zM791.6 74h9.6v20h-9.6zM801.2 74h9.6v20h-9.6zM810.8 74h9.6v20h-9.6zM820.4 74h9.6v20h-9.6zM830 74h9.6v20h-9.6zM839.6 74h9.6v20h-9.6zM849.2 74h9.6v20h-9.6zM858.8 74h9.6v20h-9.6zM868.4 74h9.6v20h-9.6zM878 74h9.6v20h-9.6zM887.6 74h9.6v20h-9.6zM897.2 74h9.6v20h-9.6zM906.8 74h9.6v20h-9.6zM916.4 74h9.6v20h-9.6zM926 74h9.6v20h-9.6zM935.6 74h9.6v20h-9.6zM945.2 74h9.6v20h-9.6zM954.8 74h9.6v20h-9.6zM964.4 74h9.6v20h-9.6zM974 74h9.6v20h-9.6zM983.6 74h4.8v20h-4.8zM23.6 106.5h9.6v7.5h-9.6zM33.2 101.5h9.6v12.5h-9.6zM42.8 104h9.6v10h-9.6zM52.4 109h9.6v5h-9.6zM62 106.5h9.6v7.5h-9.6zM71.6 104h9.6v10h-9.6zM81.2 109h9.6v5h-9.6zM244.4 106.5h9.6v7.5h-9.6zM254 104h9.6v10h-9.6zM263.6 109h9.6v5h-9.6zM273.2 106.5h9.6v7.5h-9.6zM282.8 99h9.6v15h-9.6zM292.4 104h9.6v10h-9.6zM302 109h9.6v5h-9.6zM311.6 106.5h9.6v7.5h-9.6zM321.2 104h9.6v10h-9.6zM494 104h9.6v10h-9.6zM503.6 104h9.6v10h-9.6zM513.2 109h9.6v5h-9.6zM522.8 104h9.6v10h-9.6zM532.4 99h9.6v15h-9.6zM542 106.5h9.6v7.5h-9.6zM551.6 111.5h9.6v2.5h-9.6zM561.2 106.5h9.6v7.5h-9.6zM599.6 106.5h9.6v7.5h-9.6zM609.2 106.5h9.6v7.5h-9.6zM618.8 111.5h9.6v2.5h-9.6zM628.4 111.5h9.6v2.5h-9.6zM638 109h9.6v5h-9.6zM647.6 111.5h9.6v2.5h-9.6zM734 111.5h9.6v2.5h-9.6zM743.6 109h9.6v5h-9.6zM753.2 109h9.6v5h-9.6zM762.8 109h9.6v5h-9.6zM772.4 106.5h9.6v7.5h-9.6zM782 104h9.6v10h-9.6zM791.6 106.5h9.6v7.5h-9.6zM801.2 106.5h9.6v7.5h-9.6zM810.8 104h9.6v10h-9.6zM820.4 104h9.6v10h-9.6zM830 106.5h9.6v7.5h-9.6zM839.6 106.5h9.6v7.5h-9.6zM849.2 106.5h9.6v7.5h-9.6zM858.8 109h9.6v5h-9.6zM868.4 111.5h9.6v2.5h-9.6zM878 111.5h9.6v2.5h-9.6zM887.6 111.5h9.6v2.5h-9.6zM954.8 111.5h9.6v2.5h-9.6zM964.4 111.5h9.6v2.5h-9.6zM983.6 111.5h9.6v2.5h-9.6zM993.2 109h9.6v5h-9.6zM1002.8 109h9.6v5h-9.6zM1012.4 109h9.6v5h-9.6zM1022 106.5h9.6v7.5h-9.6zM1031.6 104h9.6v10h-9.6zM1041.2 106.5h9.6v7.5h-9.6zM1050.8 106.5h9.6v7.5h-9.6zM1060.4 104h9.6v10h-9.6zM1070 104h9.6v10h-9.6zM1079.6 109h9.6v5h-9.6zM1089.2 109h9.6v5h-9.6zM1098.8 106.5h9.6v7.5h-9.6zM1108.4 109h9.6v5h-9.6zM1118 111.5h9.6v2.5h-9.6zM1127.6 111.5h9.6v2.5h-9.6zM1137.2 111.5h9.6v2.5h-9.6zM23.6 114h9.6v20h-9.6zM33.2 114h9.6v20h-9.6zM42.8 114h9.6v20h-9.6zM52.4 114h9.6v20h-9.6zM62 114h9.6v20h-9.6zM71.6 114h9.6v20h-9.6zM81.2 114h9.6v20h-9.6zM90.8 116.5h9.6v17.5h-9.6zM100.4 114h9.6v20h-9.6zM110 114h9.6v20h-9.6zM119.6 124h9.6v10h-9.6zM129.2 126.5h9.6v7.5h-9.6zM138.8 121.5h9.6v12.5h-9.6zM148.4 124h9.6v10h-9.6zM158 131.5h9.6v2.5h-9.6zM167.6 129h9.6v5h-9.6zM177.2 124h9.6v10h-9.6zM186.8 126.5h9.6v7.5h-9.6zM196.4 129h9.6v5h-9.6zM206 121.5h9.6v12.5h-9.6zM215.6 114h9.6v20h-9.6zM225.2 119h9.6v15h-9.6zM234.8 116.5h9.6v17.5h-9.6zM244.4 114h9.6v20h-9.6zM254 114h9.6v20h-9.6zM263.6 114h9.6v20h-9.6zM273.2 114h9.6v20h-9.6zM282.8 114h9.6v20h-9.6zM292.4 114h9.6v20h-9.6zM302 114h9.6v20h-9.6zM311.6 114h9.6v20h-9.6zM321.2 114h9.6v20h-9.6zM330.8 114h9.6v20h-9.6zM340.4 119h9.6v15h-9.6zM350 114h9.6v20h-9.6zM359.6 116.5h9.6v17.5h-9.6zM369.2 126.5h9.6v7.5h-9.6zM378.8 126.5h9.6v7.5h-9.6zM388.4 124h9.6v10h-9.6zM398 126.5h9.6v7.5h-9.6zM407.6 131.5h9.6v2.5h-9.6zM417.2 126.5h9.6v7.5h-9.6zM426.8 121.5h9.6v12.5h-9.6zM436.4 124h9.6v10h-9.6zM446 126.5h9.6v7.5h-9.6zM455.6 116.5h9.6v17.5h-9.6zM465.2 114h9.6v20h-9.6zM474.8 116.5h9.6v17.5h-9.6zM484.4 114h9.6v20h-9.6zM494 114h9.6v20h-9.6zM503.6 114h9.6v20h-9.6zM513.2 114h9.6v20h-9.6zM522.8 114h9.6v20h-9.6zM532.4 114h9.6v20h-9.6zM542 114h9.6v20h-9.6zM551.6 114h9.6v20h-9.6zM561.2 114h9.6v20h-9.6zM599.6 114h9.6v20h-9.6zM609.2 114h9.6v20h-9.6zM618.8 114h9.6v20h-9.6zM628.4 114h9.6v20h-9.6zM638 114h9.6v20h-9.6zM647.6 114h9.6v20h-9.6zM657.2 114h9.6v20h-9.6zM666.8 114h9.6v20h-9.6zM676.4 114h9.6v20h-9.6zM686 116.5h9.6v17.5h-9.6zM695.6 116.5h9.6v17.5h-9.6zM705.2 114h9.6v20h-9.6zM714.8 114h9.6v20h-9.6zM724.4 114h9.6v20h-9.6zM734 114h9.6v20h-9.6zM743.6 114h9.6v20h-9.6zM753.2 114h9.6v20h-9.6zM762.8 114h9.6v20h-9.6zM772.4 114h9.6v20h-9.6zM782 114h9.6v20h-9.6zM791.6 114h9.6v20h-9.6zM801.2 114h9.6v20h-9.6zM810.8 114h9.6v20h-9.6zM820.4 114h9.6v20h-9.6zM830 114h9.6v20h-9.6zM839.6 114h9.6v20h-9.6zM849.2 114h9.6v20h-9.6zM858.8 114h9.6v20h-9.6zM868.4 114h9.6v20h-9.6zM878 114h9.6v20h-9.6zM887.6 114h9.6v20h-9.6zM897.2 114h9.6v20h-9.6zM906.8 116.5h9.6v17.5h-9.6zM916.4 114h9.6v20h-9.6zM926 114h9.6v20h-9.6zM935.6 116.5h9.6v17.5h-9.6zM945.2 116.5h9.6v17.5h-9.6zM954.8 114h9.6v20h-9.6zM964.4 114h9.6v20h-9.6zM974 114h9.6v20h-9.6zM983.6 114h9.6v20h-9.6zM993.2 114h9.6v20h-9.6zM1002.8 114h9.6v20h-9.6zM1012.4 114h9.6v20h-9.6zM1022 114h9.6v20h-9.6zM1031.6 114h9.6v20h-9.6zM1041.2 114h9.6v20h-9.6zM1050.8 114h9.6v20h-9.6zM1060.4 114h9.6v20h-9.6zM1070 114h9.6v20h-9.6zM1079.6 114h9.6v20h-9.6zM1089.2 114h9.6v20h-9.6zM1098.8 114h9.6v20h-9.6zM1108.4 114h9.6v20h-9.6zM1118 114h9.6v20h-9.6zM1127.6 114h9.6v20h-9.6zM1137.2 114h9.6v20h-9.6zM1146.8 114h9.6v20h-9.6z"/>
<path fill="#e0443e" fill-opacity="0.12100000000000001" d="M254 74h9.6v20h-9.6zM263.6 74h9.6v20h-9.6zM273.2 74h9.6v20h-9.6zM282.8 74h9.6v20h-9.6zM292.4 74h9.6v20h-9.6zM302 74h9.6v20h-9.6zM311.6 74h9.6v20h-9.6zM321.2 74h9.6v20h-9.6zM330.8 74h9.6v20h-9.6zM340.4 74h9.6v20h-9.6zM350 74h9.6v20h-9.6zM359.6 74h9.6v20h-9.6zM369.2 74h9.6v20h-9.6zM378.8 74h9.6v20h-9.6zM388.4 74h9.6v20h-9.6zM398 74h9.6v20h-9.6zM407.6 74h9.6v20h-9.6zM417.2 74h9.6v20h-9.6zM426.8 74h9.6v20h-9.6zM436.4 74h9.6v20h-9.6zM446 74h9.6v20h-9.6zM455.6 74h9.6v20h-9.6zM465.2 74h9.6v20h-9.6zM474.8 74h9.6v20h-9.6zM484.4 74h9.6v20h-9.6zM494 74h9.6v20h-9.6zM503.6 74h9.6v20h-9.6zM513.2 74h9.6v20h-9.6zM522.8 74h9.6v20h-9.6zM532.4 74h9.6v20h-9.6zM542 74h9.6v20h-9.6zM551.6 74h9.6v20h-9.6zM561.2 74h9.6v20h-9.6zM993.2 74h9.6v20h-9.6zM1002.8 74h9.6v20h-9.6zM1012.4 74h9.6v20h-9.6zM1022 74h9.6v20h-9.6zM1031.6 74h9.6v20h-9.6zM1041.2 74h9.6v20h-9.6zM1050.8 74h9.6v20h-9.6zM1060.4 74h9.6v20h-9.6zM1070 74h9.6v20h-9.6zM1079.6 74h9.6v20h-9.6zM1089.2 74h9.6v20h-9.6zM1098.8 74h9.6v20h-9.6zM1108.4 74h9.6v20h-9.6zM1118 74h9.6v20h-9.6zM1127.6 74h9.6v20h-9.6zM1137.2 74h9.6v20h-9.6zM1146.8 74h9.6v20h-9.6z"/>
<g fill="none" stroke-linecap="square" stroke-linejoin="miter">
<path stroke="#3a322d" stroke-width="1.3" d="M23.6 64H23.6Q18.8 64 18.8 68.8V74M23.6 64H33.2M81.2 64H90.8M90.8 64H100.4M100.4 64H110M110 64H119.6M119.6 64H129.2M129.2 64H138.8M138.8 64H148.4M148.4 64H158M158 64H167.6M167.6 64H177.2M177.2 64H186.8M186.8 64H196.4M196.4 64H206M206 64H215.6M215.6 64H225.2M225.2 64H234.8M234.8 64H244.4M244.4 64H254M254 64H263.6M263.6 64H273.2M273.2 64H282.8M282.8 64H292.4M292.4 64H302M302 64H311.6M311.6 64H321.2M321.2 64H330.8M330.8 64H340.4M340.4 64H350M350 64H359.6M359.6 64H369.2M369.2 64H378.8M378.8 64H388.4M388.4 64H398M398 64H407.6M407.6 64H417.2M417.2 64H426.8M426.8 64H436.4M436.4 64H446M446 64H455.6M455.6 64H465.2M465.2 64H474.8M474.8 64H484.4M484.4 64H494M494 64H503.6M503.6 64H513.2M513.2 64H522.8M522.8 64H532.4M532.4 64H542M542 64H551.6M551.6 64H561.2M561.2 64H570.8M570.8 64H570.8Q575.6 64 575.6 68.8V74M599.6 64H599.6Q594.8 64 594.8 68.8V74M599.6 64H609.2M686 64H695.6M695.6 64H705.2M705.2 64H714.8M714.8 64H724.4M724.4 64H734M734 64H743.6M743.6 64H753.2M753.2 64H762.8M762.8 64H772.4M772.4 64H782M782 64H791.6M791.6 64H801.2M801.2 64H810.8M810.8 64H820.4M820.4 64H830M830 64H839.6M839.6 64H849.2M849.2 64H858.8M858.8 64H868.4M868.4 64H878M878 64H887.6M887.6 64H897.2M897.2 64H906.8M906.8 64H916.4M916.4 64H926M926 64H935.6M935.6 64H945.2M945.2 64H954.8M954.8 64H964.4M964.4 64H974M974 64H983.6M983.6 64H993.2M993.2 64H1002.8M1002.8 64H1012.4M1012.4 64H1022M1022 64H1031.6M1031.6 64H1041.2M1041.2 64H1050.8M1050.8 64H1060.4M1060.4 64H1070M1070 64H1079.6M1079.6 64H1089.2M1089.2 64H1098.8M1098.8 64H1108.4M1108.4 64H1118M1118 64H1127.6M1127.6 64H1137.2M1137.2 64H1146.8M1146.8 64H1156.4M1156.4 64H1156.4Q1161.2 64 1161.2 68.8V74M18.8 74V94M575.6 74V94M594.8 74V94M1161.2 74V94M18.8 94V114M575.6 94V114M594.8 94V114M1161.2 94V114M18.8 114V134M575.6 114V134M594.8 114V134M1161.2 114V134M23.6 144H23.6Q18.8 144 18.8 139.2V134M23.6 144H33.2M33.2 144H42.8M42.8 144H52.4M52.4 144H62M62 144H71.6M71.6 144H81.2M81.2 144H90.8M90.8 144H100.4M100.4 144H110M110 144H119.6M119.6 144H129.2M129.2 144H138.8M138.8 144H148.4M148.4 144H158M158 144H167.6M167.6 144H177.2M177.2 144H186.8M186.8 144H196.4M196.4 144H206M206 144H215.6M215.6 144H225.2M225.2 144H234.8M234.8 144H244.4M244.4 144H254M254 144H263.6M263.6 144H273.2M273.2 144H282.8M282.8 144H292.4M292.4 144H302M302 144H311.6M311.6 144H321.2M321.2 144H330.8M330.8 144H340.4M340.4 144H350M350 144H359.6M359.6 144H369.2M369.2 144H378.8M378.8 144H388.4M388.4 144H398M398 144H407.6M407.6 144H417.2M417.2 144H426.8M426.8 144H436.4M436.4 144H446M446 144H455.6M455.6 144H465.2M465.2 144H474.8M474.8 144H484.4M484.4 144H494M494 144H503.6M503.6 144H513.2M513.2 144H522.8M522.8 144H532.4M532.4 144H542M542 144H551.6M551.6 144H561.2M561.2 144H570.8M570.8 144H570.8Q575.6 144 575.6 139.2V134M599.6 144H599.6Q594.8 144 594.8 139.2V134M599.6 144H609.2M609.2 144H618.8M618.8 144H628.4M628.4 144H638M638 144H647.6M647.6 144H657.2M657.2 144H666.8M666.8 144H676.4M676.4 144H686M686 144H695.6M695.6 144H705.2M705.2 144H714.8M714.8 144H724.4M724.4 144H734M734 144H743.6M743.6 144H753.2M753.2 144H762.8M762.8 144H772.4M772.4 144H782M782 144H791.6M791.6 144H801.2M801.2 144H810.8M810.8 144H820.4M820.4 144H830M830 144H839.6M839.6 144H849.2M849.2 144H858.8M858.8 144H868.4M868.4 144H878M878 144H887.6M887.6 144H897.2M897.2 144H906.8M906.8 144H916.4M916.4 144H926M926 144H935.6M935.6 144H945.2M945.2 144H954.8M954.8 144H964.4M964.4 144H974M974 144H983.6M983.6 144H993.2M993.2 144H1002.8M1002.8 144H1012.4M1012.4 144H1022M1022 144H1031.6M1031.6 144H1041.2M1041.2 144H1050.8M1050.8 144H1060.4M1060.4 144H1070M1070 144H1079.6M1079.6 144H1089.2M1089.2 144H1098.8M1098.8 144H1108.4M1108.4 144H1118M1118 144H1127.6M1127.6 144H1137.2M1137.2 144H1146.8M1146.8 144H1156.4M1156.4 144H1156.4Q1161.2 144 1161.2 139.2V134M23.6 184H23.6Q18.8 184 18.8 188.8V194M23.6 184H33.2M90.8 184H100.4M100.4 184H110M110 184H119.6M119.6 184H129.2M129.2 184H138.8M138.8 184H148.4M148.4 184H158M158 184H167.6M167.6 184H177.2M177.2 184H186.8M186.8 184H196.4M196.4 184H206M206 184H215.6M215.6 184H225.2M225.2 184H234.8M234.8 184H244.4M244.4 184H254M254 184H263.6M263.6 184H273.2M273.2 184H282.8M282.8 184H292.4M292.4 184H302M302 184H311.6M311.6 184H321.2M321.2 184H330.8M330.8 184H340.4M340.4 184H350M350 184H359.6M359.6 184H369.2M369.2 184H378.8M378.8 184H388.4M388.4 184H398M398 184H407.6M407.6 184H417.2M417.2 184H426.8M426.8 184H436.4M436.4 184H446M446 184H455.6M455.6 184H465.2M465.2 184H474.8M474.8 184H484.4M484.4 184H494M494 184H503.6M503.6 184H513.2M513.2 184H522.8M522.8 184H532.4M532.4 184H542M542 184H551.6M551.6 184H561.2M561.2 184H570.8M570.8 184H570.8Q575.6 184 575.6 188.8V194M599.6 184H599.6Q594.8 184 594.8 188.8V194M599.6 184H609.2M657.2 184H666.8M666.8 184H676.4M676.4 184H686M686 184H695.6M695.6 184H705.2M705.2 184H714.8M714.8 184H724.4M724.4 184H734M734 184H743.6M743.6 184H753.2M753.2 184H762.8M762.8 184H772.4M772.4 184H782M782 184H791.6M791.6 184H801.2M801.2 184H810.8M810.8 184H820.4M820.4 184H830M830 184H839.6M839.6 184H849.2M849.2 184H858.8M858.8 184H868.4M868.4 184H878M878 184H887.6M887.6 184H897.2M897.2 184H906.8M906.8 184H916.4M916.4 184H926M926 184H935.6M935.6 184H945.2M945.2 184H954.8M954.8 184H964.4M964.4 184H974M974 184H983.6M983.6 184H993.2M993.2 184H1002.8M1002.8 184H1012.4M1012.4 184H1022M1022 184H1031.6M1031.6 184H1041.2M1041.2 184H1050.8M1050.8 184H1060.4M1060.4 184H1070M1070 184H1079.6M1079.6 184H1089.2M1089.2 184H1098.8M1098.8 184H1108.4M1108.4 184H1118M1118 184H1127.6M1127.6 184H1137.2M1137.2 184H1146.8M1146.8 184H1156.4M1156.4 184H1156.4Q1161.2 184 1161.2 188.8V194M18.8 194V214M575.6 194V214M594.8 194V214M1161.2 194V214M18.8 214V234M575.6 214V234M594.8 214V234M1161.2 214V234M18.8 234V254M575.6 234V254M594.8 234V254M1161.2 234V254M18.8 254V274M575.6 254V274M594.8 254V274M1161.2 254V274M18.8 274V294M575.6 274V294M594.8 274V294M1161.2 274V294M23.6 304H23.6Q18.8 304 18.8 299.2V294M23.6 304H33.2M33.2 304H42.8M42.8 304H52.4M52.4 304H62M62 304H71.6M71.6 304H81.2M81.2 304H90.8M90.8 304H100.4M100.4 304H110M110 304H119.6M119.6 304H129.2M129.2 304H138.8M138.8 304H148.4M148.4 304H158M158 304H167.6M167.6 304H177.2M177.2 304H186.8M186.8 304H196.4M196.4 304H206M206 304H215.6M215.6 304H225.2M225.2 304H234.8M234.8 304H244.4M244.4 304H254M254 304H263.6M263.6 304H273.2M273.2 304H282.8M282.8 304H292.4M292.4 304H302M302 304H311.6M311.6 304H321.2M321.2 304H330.8M330.8 304H340.4M340.4 304H350M350 304H359.6M359.6 304H369.2M369.2 304H378.8M378.8 304H388.4M388.4 304H398M398 304H407.6M407.6 304H417.2M417.2 304H426.8M426.8 304H436.4M436.4 304H446M446 304H455.6M455.6 304H465.2M465.2 304H474.8M474.8 304H484.4M484.4 304H494M494 304H503.6M503.6 304H513.2M513.2 304H522.8M522.8 304H532.4M532.4 304H542M542 304H551.6M551.6 304H561.2M561.2 304H570.8M570.8 304H570.8Q575.6 304 575.6 299.2V294M599.6 304H599.6Q594.8 304 594.8 299.2V294M599.6 304H609.2M609.2 304H618.8M618.8 304H628.4M628.4 304H638M638 304H647.6M647.6 304H657.2M657.2 304H666.8M666.8 304H676.4M676.4 304H686M686 304H695.6M695.6 304H705.2M705.2 304H714.8M714.8 304H724.4M724.4 304H734M734 304H743.6M743.6 304H753.2M753.2 304H762.8M762.8 304H772.4M772.4 304H782M782 304H791.6M791.6 304H801.2M801.2 304H810.8M810.8 304H820.4M820.4 304H830M830 304H839.6M839.6 304H849.2M849.2 304H858.8M858.8 304H868.4M868.4 304H878M878 304H887.6M887.6 304H897.2M897.2 304H906.8M906.8 304H916.4M916.4 304H926M926 304H935.6M935.6 304H945.2M945.2 304H954.8M954.8 304H964.4M964.4 304H974M974 304H983.6M983.6 304H993.2M993.2 304H1002.8M1002.8 304H1012.4M1012.4 304H1022M1022 304H1031.6M1031.6 304H1041.2M1041.2 304H1050.8M1050.8 304H1060.4M1060.4 304H1070M1070 304H1079.6M1079.6 304H1089.2M1089.2 304H1098.8M1098.8 304H1108.4M1108.4 304H1118M1118 304H1127.6M1127.6 304H1137.2M1137.2 304H1146.8M1146.8 304H1156.4M1156.4 304H1156.4Q1161.2 304 1161.2 299.2V294"/>
</g>
<g font-family="'JetBrains Mono','SF Mono',SFMono-Regular,Menlo,Consolas,'DejaVu Sans Mono','Noto Sans Mono',monospace" font-size="16" xml:space="preserve">
<text x="14" y="29" textLength="9.6" lengthAdjust="spacing" fill="#e0443e" font-weight="700">◆</text>
<text x="33.2" y="29" textLength="67.2" lengthAdjust="spacing" fill="#e0443e" font-weight="700">monitor</text>
<text x="110" y="29" textLength="86.4" lengthAdjust="spacing" fill="#9a8f86">studio-01</text>
<text x="1022" y="29" textLength="9.6" lengthAdjust="spacing" fill="#5fb376" font-weight="700">●</text>
<text x="1041.2" y="29" textLength="38.4" lengthAdjust="spacing" fill="#5fb376" font-weight="700">LIVE</text>
<text x="1089.2" y="29" textLength="76.8" lengthAdjust="spacing" fill="#9a8f86">12:00:00</text>
<text x="14" y="49" textLength="19.2" lengthAdjust="spacing" fill="#e0443e" font-weight="700">▸1</text>
<text x="42.8" y="49" textLength="76.8" lengthAdjust="spacing" fill="#e0443e" font-weight="700">overview</text>
<text x="148.4" y="49" textLength="9.6" lengthAdjust="spacing" fill="#9a8f86">2</text>
<text x="167.6" y="49" textLength="28.8" lengthAdjust="spacing" fill="#9a8f86">cpu</text>
<text x="225.2" y="49" textLength="9.6" lengthAdjust="spacing" fill="#9a8f86">3</text>
<text x="244.4" y="49" textLength="57.6" lengthAdjust="spacing" fill="#9a8f86">memory</text>
<text x="330.8" y="49" textLength="9.6" lengthAdjust="spacing" fill="#9a8f86">4</text>
<text x="350" y="49" textLength="67.2" lengthAdjust="spacing" fill="#9a8f86">thermal</text>
<text x="446" y="49" textLength="9.6" lengthAdjust="spacing" fill="#9a8f86">5</text>
<text x="465.2" y="49" textLength="38.4" lengthAdjust="spacing" fill="#9a8f86">disk</text>
<text x="532.4" y="49" textLength="9.6" lengthAdjust="spacing" fill="#9a8f86">6</text>
<text x="551.6" y="49" textLength="67.2" lengthAdjust="spacing" fill="#9a8f86">network</text>
<text x="647.6" y="49" textLength="9.6" lengthAdjust="spacing" fill="#9a8f86">7</text>
<text x="666.8" y="49" textLength="86.4" lengthAdjust="spacing" fill="#9a8f86">processes</text>
<text x="782" y="49" textLength="9.6" lengthAdjust="spacing" fill="#9a8f86">8</text>
<text x="801.2" y="49" textLength="76.8" lengthAdjust="spacing" fill="#9a8f86">settings</text>
<text x="906.8" y="49" textLength="9.6" lengthAdjust="spacing" fill="#9a8f86">9</text>
<text x="926" y="49" textLength="57.6" lengthAdjust="spacing" fill="#9a8f86">trends</text>
<text x="42.8" y="69" textLength="28.8" lengthAdjust="spacing" fill="#9a8f86">cpu</text>
<text x="618.8" y="69" textLength="57.6" lengthAdjust="spacing" fill="#9a8f86">memory</text>
<text x="23.6" y="89" textLength="28.8" lengthAdjust="spacing" fill="#f2ede8">cpu</text>
<text x="62" y="89" textLength="28.8" lengthAdjust="spacing" fill="#f2ede8">23%</text>
<text x="599.6" y="89" textLength="28.8" lengthAdjust="spacing" fill="#f2ede8">mem</text>
<text x="638" y="89" textLength="28.8" lengthAdjust="spacing" fill="#f2ede8">61%</text>
<text x="42.8" y="189" textLength="38.4" lengthAdjust="spacing" fill="#9a8f86">load</text>
<text x="618.8" y="189" textLength="28.8" lengthAdjust="spacing" fill="#9a8f86">top</text>
<text x="23.6" y="209" textLength="38.4" lengthAdjust="spacing" fill="#f2ede8">load</text>
<text x="71.6" y="209" textLength="38.4" lengthAdjust="spacing" fill="#f2ede8">1.20</text>
<text x="119.6" y="209" textLength="38.4" lengthAdjust="spacing" fill="#f2ede8">0.98</text>
<text x="167.6" y="209" textLength="38.4" lengthAdjust="spacing" fill="#f2ede8">0.75</text>
<text x="599.6" y="209" textLength="115.2" lengthAdjust="spacing" fill="#f2ede8">WindowServer</text>
<text x="1108.4" y="209" textLength="48" lengthAdjust="spacing" fill="#f2ede8">87.3%</text>
<text x="599.6" y="229" textLength="105.6" lengthAdjust="spacing" fill="#f2ede8">kernel_task</text>
<text x="1108.4" y="229" textLength="48" lengthAdjust="spacing" fill="#f2ede8">64.0%</text>
<text x="599.6" y="249" textLength="38.4" lengthAdjust="spacing" fill="#f2ede8">Code</text>
<text x="647.6" y="249" textLength="57.6" lengthAdjust="spacing" fill="#f2ede8">Helper</text>
<text x="714.8" y="249" textLength="96" lengthAdjust="spacing" fill="#f2ede8">(Renderer)</text>
<text x="1108.4" y="249" textLength="48" lengthAdjust="spacing" fill="#f2ede8">41.8%</text>
<text x="609.2" y="269" text-anchor="middle" fill="#f2ede8">微</text>
<text x="628.4" y="269" text-anchor="middle" fill="#f2ede8">信</text>
<text x="1108.4" y="269" textLength="48" lengthAdjust="spacing" fill="#f2ede8">25.6%</text>
<text x="599.6" y="289" textLength="38.4" lengthAdjust="spacing" fill="#f2ede8">node</text>
<text x="1108.4" y="289" textLength="48" lengthAdjust="spacing" fill="#f2ede8">18.2%</text>
<text x="14" y="329" textLength="9.6" lengthAdjust="spacing" fill="#e0443e" font-weight="700">q</text>
<text x="33.2" y="329" textLength="38.4" lengthAdjust="spacing" fill="#9a8f86">quit</text>
<text x="90.8" y="329" textLength="9.6" lengthAdjust="spacing" fill="#e0443e" font-weight="700">?</text>
<text x="110" y="329" textLength="38.4" lengthAdjust="spacing" fill="#9a8f86">help</text>
<text x="167.6" y="329" textLength="28.8" lengthAdjust="spacing" fill="#e0443e" font-weight="700">1-9</text>
<text x="206" y="329" textLength="38.4" lengthAdjust="spacing" fill="#9a8f86">tabs</text>
<text x="263.6" y="329" textLength="9.6" lengthAdjust="spacing" fill="#e0443e" font-weight="700">p</text>
<text x="282.8" y="329" textLength="48" lengthAdjust="spacing" fill="#9a8f86">pause</text>
<text x="350" y="329" textLength="9.6" lengthAdjust="spacing" fill="#e0443e" font-weight="700">r</text>
<text x="369.2" y="329" textLength="67.2" lengthAdjust="spacing" fill="#9a8f86">refresh</text>
</g>
</svg>
