<svg xmlns="http://www.w3.org/2000/svg" width="642.4" height="308" viewBox="0 0 642.4 308" role="img" aria-label="CJK, emoji and combining accents laid out in cells, borders intact">
<title>CJK, emoji and combining accents laid out in cells, borders intact</title>
<rect width="642.4" height="308" rx="6" fill="#0d1117"/>
<path fill="#161b22" d="M14 14h614.4v20h-614.4zM14 274h614.4v20h-614.4z"/>
<path fill="#8b949e" d="M23.6 74h9.6v20h-9.6z"/>
<path fill="#e6edf3" d="M33.2 74h220.8v20h-220.8z"/>
<g fill="none" stroke-linecap="square" stroke-linejoin="miter">
<path stroke="#30363d" stroke-width="1.3" d="M23.6 44H18.8V54M23.6 44H33.2M33.2 44H42.8M42.8 44H52.4M52.4 44H62M62 44H71.6M71.6 44H81.2M81.2 44H90.8M90.8 44H100.4M100.4 44H110M110 44H119.6M119.6 44H129.2M129.2 44H138.8M138.8 44H148.4M148.4 44H158M158 44H167.6M167.6 44H177.2M177.2 44H186.8M186.8 44H196.4M196.4 44H206M206 44H215.6M215.6 44H225.2M225.2 44H234.8M234.8 44H244.4M244.4 44H254M254 44H258.8V54M273.2 44H268.4V54M273.2 44H282.8M282.8 44H292.4M292.4 44H302M302 44H311.6M311.6 44H321.2M321.2 44H330.8M330.8 44H340.4M340.4 44H350M350 44H359.6M359.6 44H369.2M369.2 44H378.8M378.8 44H388.4M388.4 44H398M398 44H407.6M407.6 44H417.2M417.2 44H426.8M426.8 44H436.4M436.4 44H446M446 44H455.6M455.6 44H465.2M465.2 44H474.8M474.8 44H484.4M484.4 44H494M494 44H503.6M503.6 44H513.2M513.2 44H522.8M522.8 44H532.4M532.4 44H542M542 44H551.6M551.6 44H561.2M561.2 44H570.8M570.8 44H580.4M580.4 44H590M590 44H599.6M599.6 44H609.2M609.2 44H618.8M618.8 44H623.6V54M18.8 54V74M258.8 54V74M268.4 54V74M623.6 54V74M18.8 74V94M258.8 74V94M268.4 74V94M623.6 74V94M18.8 94V114M258.8 94V114M268.4 94V114M623.6 94V114M18.8 114V134M258.8 114V134M268.4 114V134M623.6 114V134M18.8 134V154M258.8 134V154M268.4 134V154M623.6 134V154M18.8 154V174M258.8 154V174M268.4 154V174M623.6 154V174M18.8 174V194M258.8 174V194M268.4 174V194M623.6 174V194M18.8 194V214M258.8 194V214M268.4 194V214M623.6 194V214M18.8 214V234M258.8 214V234M268.4 214V234M623.6 214V234M18.8 234V254M258.8 234V254M268.4 234V254M623.6 234V254M23.6 264H18.8V254M23.6 264H33.2M33.2 264H42.8M42.8 264H52.4M52.4 264H62M62 264H71.6M71.6 264H81.2M81.2 264H90.8M90.8 264H100.4M100.4 264H110M110 264H119.6M119.6 264H129.2M129.2 264H138.8M138.8 264H148.4M148.4 264H158M158 264H167.6M167.6 264H177.2M177.2 264H186.8M186.8 264H196.4M196.4 264H206M206 264H215.6M215.6 264H225.2M225.2 264H234.8M234.8 264H244.4M244.4 264H254M254 264H258.8V254M273.2 264H268.4V254M273.2 264H282.8M282.8 264H292.4M292.4 264H302M302 264H311.6M311.6 264H321.2M321.2 264H330.8M330.8 264H340.4M340.4 264H350M350 264H359.6M359.6 264H369.2M369.2 264H378.8M378.8 264H388.4M388.4 264H398M398 264H407.6M407.6 264H417.2M417.2 264H426.8M426.8 264H436.4M436.4 264H446M446 264H455.6M455.6 264H465.2M465.2 264H474.8M474.8 264H484.4M484.4 264H494M494 264H503.6M503.6 264H513.2M513.2 264H522.8M522.8 264H532.4M532.4 264H542M542 264H551.6M551.6 264H561.2M561.2 264H570.8M570.8 264H580.4M580.4 264H590M590 264H599.6M599.6 264H609.2M609.2 264H618.8M618.8 264H623.6V254"/>
</g>
<g font-family="'JetBrains Mono','SF Mono',SFMono-Regular,Menlo,Consolas,'DejaVu Sans Mono','Noto Sans Mono',monospace" font-size="16" xml:space="preserve">
<text x="23.6" y="29" text-anchor="middle" fill="#e6edf3">中</text>
<text x="42.8" y="29" text-anchor="middle" fill="#e6edf3">文</text>
<text x="62" y="29" textLength="48" lengthAdjust="spacing" fill="#e6edf3">emoji</text>
<text x="119.6" y="29" textLength="38.4" lengthAdjust="spacing" fill="#e6edf3">café</text>
<text x="177.2" y="29" text-anchor="middle" fill="#e6edf3">🔥</text>
<text x="33.2" y="69" text-anchor="middle" fill="#e6edf3" font-weight="700">配</text>
<text x="52.4" y="69" text-anchor="middle" fill="#e6edf3" font-weight="700">置</text>
<text x="81.2" y="69" text-anchor="middle" fill="#e6edf3" font-weight="700">🎉</text>
<text x="273.2" y="69" textLength="38.4" lengthAdjust="spacing" fill="#e6edf3" font-weight="700">note</text>
<text x="23.6" y="89" textLength="9.6" lengthAdjust="spacing" fill="#0d1117">1</text>
<text x="42.8" y="89" text-anchor="middle" fill="#0d1117">中</text>
<text x="62" y="89" text-anchor="middle" fill="#0d1117">文</text>
<text x="81.2" y="89" text-anchor="middle" fill="#0d1117">测</text>
<text x="100.4" y="89" text-anchor="middle" fill="#0d1117">试</text>
<text x="273.2" y="89" textLength="38.4" lengthAdjust="spacing" fill="#e6edf3">This</text>
<text x="321.2" y="89" textLength="38.4" lengthAdjust="spacing" fill="#e6edf3">note</text>
<text x="369.2" y="89" textLength="48" lengthAdjust="spacing" fill="#e6edf3">wraps</text>
<text x="426.8" y="89" textLength="38.4" lengthAdjust="spacing" fill="#e6edf3">café</text>
<text x="474.8" y="89" textLength="19.2" lengthAdjust="spacing" fill="#e6edf3">(a</text>
<text x="503.6" y="89" textLength="86.4" lengthAdjust="spacing" fill="#e6edf3">combining</text>
<text x="23.6" y="109" textLength="9.6" lengthAdjust="spacing" fill="#8b949e">2</text>
<text x="33.2" y="109" textLength="38.4" lengthAdjust="spacing" fill="#e6edf3">café</text>
<text x="81.2" y="109" textLength="48" lengthAdjust="spacing" fill="#e6edf3">latte</text>
<text x="273.2" y="109" textLength="76.8" lengthAdjust="spacing" fill="#e6edf3">accent),</text>
<text x="369.2" y="109" text-anchor="middle" fill="#e6edf3">中</text>
<text x="388.4" y="109" text-anchor="middle" fill="#e6edf3">文</text>
<text x="407.6" y="109" text-anchor="middle" fill="#e6edf3">测</text>
<text x="426.8" y="109" text-anchor="middle" fill="#e6edf3">试</text>
<text x="446" y="109" textLength="48" lengthAdjust="spacing" fill="#e6edf3">(wide</text>
<text x="503.6" y="109" textLength="48" lengthAdjust="spacing" fill="#e6edf3">CJK),</text>
<text x="561.2" y="109" textLength="28.8" lengthAdjust="spacing" fill="#e6edf3">and</text>
<text x="23.6" y="129" textLength="9.6" lengthAdjust="spacing" fill="#8b949e">3</text>
<text x="33.2" y="129" textLength="48" lengthAdjust="spacing" fill="#e6edf3">emoji</text>
<text x="100.4" y="129" text-anchor="middle" fill="#e6edf3">🔥</text>
<text x="119.6" y="129" text-anchor="middle" fill="#e6edf3">🎉</text>
<text x="282.8" y="129" text-anchor="middle" fill="#e6edf3">🔥</text>
<text x="302" y="129" text-anchor="middle" fill="#e6edf3">🎉</text>
<text x="321.2" y="129" textLength="67.2" lengthAdjust="spacing" fill="#e6edf3">(emoji)</text>
<text x="398" y="129" textLength="57.6" lengthAdjust="spacing" fill="#e6edf3">across</text>
<text x="465.2" y="129" textLength="67.2" lengthAdjust="spacing" fill="#e6edf3">several</text>
<text x="542" y="129" textLength="48" lengthAdjust="spacing" fill="#e6edf3">lines</text>
<text x="23.6" y="149" textLength="9.6" lengthAdjust="spacing" fill="#8b949e">4</text>
<text x="33.2" y="149" textLength="48" lengthAdjust="spacing" fill="#e6edf3">naïve</text>
<text x="273.2" y="149" textLength="67.2" lengthAdjust="spacing" fill="#e6edf3">without</text>
<text x="350" y="149" textLength="38.4" lengthAdjust="spacing" fill="#e6edf3">ever</text>
<text x="398" y="149" textLength="86.4" lengthAdjust="spacing" fill="#e6edf3">splitting</text>
<text x="494" y="149" textLength="9.6" lengthAdjust="spacing" fill="#e6edf3">a</text>
<text x="513.2" y="149" textLength="76.8" lengthAdjust="spacing" fill="#e6edf3">grapheme</text>
<text x="23.6" y="169" textLength="9.6" lengthAdjust="spacing" fill="#8b949e">5</text>
<text x="42.8" y="169" text-anchor="middle" fill="#e6edf3">中</text>
<text x="62" y="169" text-anchor="middle" fill="#e6edf3">文</text>
<text x="81.2" y="169" text-anchor="middle" fill="#e6edf3">📦</text>
<text x="90.8" y="169" textLength="28.8" lengthAdjust="spacing" fill="#e6edf3">mix</text>
<text x="273.2" y="169" textLength="67.2" lengthAdjust="spacing" fill="#e6edf3">cluster</text>
<text x="350" y="169" textLength="19.2" lengthAdjust="spacing" fill="#e6edf3">in</text>
<text x="378.8" y="169" textLength="48" lengthAdjust="spacing" fill="#e6edf3">half,</text>
<text x="436.4" y="169" textLength="38.4" lengthAdjust="spacing" fill="#e6edf3">even</text>
<text x="484.4" y="169" textLength="38.4" lengthAdjust="spacing" fill="#e6edf3">when</text>
<text x="532.4" y="169" textLength="28.8" lengthAdjust="spacing" fill="#e6edf3">the</text>
<text x="570.8" y="169" textLength="38.4" lengthAdjust="spacing" fill="#e6edf3">wrap</text>
<text x="23.6" y="189" textLength="9.6" lengthAdjust="spacing" fill="#8b949e">6</text>
<text x="33.2" y="189" textLength="9.6" lengthAdjust="spacing" fill="#e6edf3">é́</text>
<text x="52.4" y="189" textLength="57.6" lengthAdjust="spacing" fill="#e6edf3">double</text>
<text x="273.2" y="189" textLength="48" lengthAdjust="spacing" fill="#e6edf3">point</text>
<text x="330.8" y="189" textLength="48" lengthAdjust="spacing" fill="#e6edf3">falls</text>
<text x="388.4" y="189" textLength="57.6" lengthAdjust="spacing" fill="#e6edf3">inside</text>
<text x="455.6" y="189" textLength="9.6" lengthAdjust="spacing" fill="#e6edf3">a</text>
<text x="474.8" y="189" textLength="38.4" lengthAdjust="spacing" fill="#e6edf3">wide</text>
<text x="522.8" y="189" textLength="86.4" lengthAdjust="spacing" fill="#e6edf3">character</text>
<text x="273.2" y="209" textLength="19.2" lengthAdjust="spacing" fill="#e6edf3">or</text>
<text x="302" y="209" textLength="9.6" lengthAdjust="spacing" fill="#e6edf3">a</text>
<text x="321.2" y="209" textLength="86.4" lengthAdjust="spacing" fill="#e6edf3">combining</text>
<text x="417.2" y="209" textLength="76.8" lengthAdjust="spacing" fill="#e6edf3">sequence</text>
<text x="503.6" y="209" textLength="38.4" lengthAdjust="spacing" fill="#e6edf3">such</text>
<text x="551.6" y="209" textLength="19.2" lengthAdjust="spacing" fill="#e6edf3">as</text>
<text x="580.4" y="209" textLength="19.2" lengthAdjust="spacing" fill="#e6edf3">é́.</text>
<text x="14" y="289" textLength="48" lengthAdjust="spacing" fill="#e6edf3">ready</text>
<text x="570.8" y="289" textLength="9.6" lengthAdjust="spacing" fill="#e6edf3">6</text>
<text x="590" y="289" textLength="38.4" lengthAdjust="spacing" fill="#e6edf3">rows</text>
</g>
</svg>
