<svg xmlns="http://www.w3.org/2000/svg" width="412" height="148" viewBox="0 0 412 148" role="img" aria-label="a focused list with a ✓ on the checked row and the cursor row reversed">
<title>a focused list with a ✓ on the checked row and the cursor row reversed</title>
<rect width="412" height="148" rx="6" fill="#0d1117"/>
<path fill="#e6edf3" d="M23.6 54h364.8v20h-364.8z"/>
<g fill="none" stroke-linecap="square" stroke-linejoin="miter">
<path stroke="#e6edf3" stroke-width="1.3" d="M23.6 24H23.6Q18.8 24 18.8 28.8V34M23.6 24H33.2M33.2 24H42.8M42.8 24H52.4M52.4 24H62M62 24H71.6M71.6 24H81.2M81.2 24H90.8M90.8 24H100.4M100.4 24H110M110 24H119.6M119.6 24H129.2M129.2 24H138.8M138.8 24H148.4M148.4 24H158M158 24H167.6M167.6 24H177.2M177.2 24H186.8M186.8 24H196.4M196.4 24H206M206 24H215.6M215.6 24H225.2M225.2 24H234.8M234.8 24H244.4M244.4 24H254M254 24H263.6M263.6 24H273.2M273.2 24H282.8M282.8 24H292.4M292.4 24H302M302 24H311.6M311.6 24H321.2M321.2 24H330.8M330.8 24H340.4M340.4 24H350M350 24H359.6M359.6 24H369.2M369.2 24H378.8M378.8 24H388.4M388.4 24H388.4Q393.2 24 393.2 28.8V34M18.8 34V54M393.2 34V54M18.8 54V74M393.2 54V74M18.8 74V94M393.2 74V94M18.8 94V114M393.2 94V114M23.6 124H23.6Q18.8 124 18.8 119.2V114M23.6 124H33.2M33.2 124H42.8M42.8 124H52.4M52.4 124H62M62 124H71.6M71.6 124H81.2M81.2 124H90.8M90.8 124H100.4M100.4 124H110M110 124H119.6M119.6 124H129.2M129.2 124H138.8M138.8 124H148.4M148.4 124H158M158 124H167.6M167.6 124H177.2M177.2 124H186.8M186.8 124H196.4M196.4 124H206M206 124H215.6M215.6 124H225.2M225.2 124H234.8M234.8 124H244.4M244.4 124H254M254 124H263.6M263.6 124H273.2M273.2 124H282.8M282.8 124H292.4M292.4 124H302M302 124H311.6M311.6 124H321.2M321.2 124H330.8M330.8 124H340.4M340.4 124H350M350 124H359.6M359.6 124H369.2M369.2 124H378.8M378.8 124H388.4M388.4 124H388.4Q393.2 124 393.2 119.2V114"/>
</g>
<g font-family="'JetBrains Mono','SF Mono',SFMono-Regular,Menlo,Consolas,'DejaVu Sans Mono','Noto Sans Mono',monospace" font-size="16" xml:space="preserve">
<text x="42.8" y="49" textLength="144" lengthAdjust="spacing" fill="#e6edf3">cmd/app/main.go</text>
<text x="42.8" y="69" textLength="144" lengthAdjust="spacing" fill="#0d1117">internal/app.go</text>
<text x="23.6" y="89" textLength="9.6" lengthAdjust="spacing" fill="#39c5cf">✓</text>
<text x="42.8" y="89" textLength="57.6" lengthAdjust="spacing" fill="#39c5cf">go.mod</text>
<text x="42.8" y="109" textLength="86.4" lengthAdjust="spacing" fill="#e6edf3">README.md</text>
</g>
</svg>
